<svg id="CMYK_-_KW_Tag_Contact" data-name="CMYK - KW + Tag + Contact" xmlns="http://www.w3.org/2000/svg" viewBox="0 0 495 177.5"><defs><style>.cls-1{fill:#808285;}.cls-2{fill:#414042;}.cls-3{fill:#991b1e;}</style></defs><title>hbc_logo</title><rect class="cls-1" y="38.34" width="495" height="2.67"/><path class="cls-2" d="M2,166.48a7.41,7.41,0,0,0,2.1,2.81,4.54,4.54,0,0,0,2.82.91A4.13,4.13,0,0,0,10,169a4.27,4.27,0,0,0,1.15-3.12,3.75,3.75,0,0,0-.66-2.28,8.45,8.45,0,0,0-2.78-2A11.09,11.09,0,0,1,4,158.93a5.08,5.08,0,0,1-.87-3.06A5,5,0,0,1,4.77,152a5.89,5.89,0,0,1,4.17-1.51,5.66,5.66,0,0,1,2.89.72,6.89,6.89,0,0,1,2.26,2.29l-1.18,1a5.56,5.56,0,0,0-1.76-1.88,4.13,4.13,0,0,0-2.24-.62A4.12,4.12,0,0,0,6,153.15a3.61,3.61,0,0,0-1.15,2.75A3.37,3.37,0,0,0,5.47,158a9.91,9.91,0,0,0,3,2.1,10.78,10.78,0,0,1,3.62,2.69,5.21,5.21,0,0,1,.86,3.09,5.74,5.74,0,0,1-1.69,4.29,6,6,0,0,1-4.39,1.65,6.25,6.25,0,0,1-3.62-1,7.46,7.46,0,0,1-2.48-3.15Z"/><path class="cls-2" d="M24,171.31l1-7.78c0-.2,0-.39.06-.57s0-.35,0-.53a2.43,2.43,0,0,0-.68-1.86,2.79,2.79,0,0,0-2-.64,3.24,3.24,0,0,0-2.71,1.27,8,8,0,0,0-1.31,3.91l-.82,6.19H16L17.6,159h1.59l-.32,1.93a6.75,6.75,0,0,1,2-1.84,4.76,4.76,0,0,1,2.37-.6,3.73,3.73,0,0,1,2.32.69,3.38,3.38,0,0,1,1.22,2,6.75,6.75,0,0,1,2-2,4.67,4.67,0,0,1,2.45-.67,3.31,3.31,0,0,1,3.57,3.58c0,.18,0,.38,0,.61s0,.49-.08.76l-1,7.87H32.08l1-7.76c0-.06,0-.16,0-.29,0-.38.06-.68.06-.9a2.31,2.31,0,0,0-.68-1.79,2.81,2.81,0,0,0-2-.62,3.26,3.26,0,0,0-2.71,1.28,7.93,7.93,0,0,0-1.32,3.9l-.8,6.19Z"/><path class="cls-2" d="M50.69,159l-1.63,12.32H47.38l.25-1.85a5.21,5.21,0,0,1-1.86,1.79,5.07,5.07,0,0,1-2.48.6,4.67,4.67,0,0,1-3.75-1.75,6.8,6.8,0,0,1-1.46-4.51,7.35,7.35,0,0,1,1.77-5,5.69,5.69,0,0,1,4.46-2,4.69,4.69,0,0,1,2.67.72,4.81,4.81,0,0,1,1.7,2.21L49,159Zm-6.93,11.44A4,4,0,0,0,47,168.8a6.47,6.47,0,0,0,1.29-4.14,5.23,5.23,0,0,0-1.06-3.42,3.43,3.43,0,0,0-2.79-1.3,4,4,0,0,0-3.28,1.62,6.34,6.34,0,0,0-1.31,4.12,5.27,5.27,0,0,0,1.07,3.47A3.52,3.52,0,0,0,43.75,170.44Z"/><path class="cls-2" d="M53.67,171.31,55.3,159h1.65l-.32,2.08a7.47,7.47,0,0,1,1.84-1.92,3.41,3.41,0,0,1,1.94-.65,4.2,4.2,0,0,1,.77.07,4,4,0,0,1,.7.19l-.39,1.68c-.37-.13-.66-.22-.86-.27a2.1,2.1,0,0,0-.5-.08,3.2,3.2,0,0,0-2.64,1.22,7.49,7.49,0,0,0-1.3,3.72l-.82,6.26Z"/><path class="cls-2" d="M64.14,160.45H62.08l.17-1.46h2.11l.66-5.05h1.67L66,159h2.55l-.21,1.46H65.82l-1.43,10.86H62.71Z"/><path class="cls-2" d="M79.53,171.31H77.77L80.47,151h2.94a17.74,17.74,0,0,1,3.66.26,5,5,0,0,1,1.88.88,4.59,4.59,0,0,1,1.34,1.68,5.11,5.11,0,0,1,.47,2.21A5.34,5.34,0,0,1,89,160.26a7.34,7.34,0,0,1-4.9,1.55l6.36,9.5h-2l-6.29-9.5H80.79Zm3.66-18.75H82l-1,7.73h2.17a16.42,16.42,0,0,0,2.3-.12,5.11,5.11,0,0,0,1.33-.38,3.64,3.64,0,0,0,1.59-1.46,4.33,4.33,0,0,0,.58-2.25,3.74,3.74,0,0,0-.4-1.76,2.94,2.94,0,0,0-1.13-1.19,4,4,0,0,0-1.2-.43,10.86,10.86,0,0,0-2-.14Z"/><path class="cls-2" d="M104.17,165.39H93.73v.32a4.87,4.87,0,0,0,1.15,3.45,4.19,4.19,0,0,0,3.23,1.23,4.59,4.59,0,0,0,2.3-.58,5.55,5.55,0,0,0,1.82-1.74l1.15,1.1a6.71,6.71,0,0,1-2.31,2,6.53,6.53,0,0,1-3,.65,6.09,6.09,0,0,1-4.43-1.62A5.71,5.71,0,0,1,92,165.94a7.59,7.59,0,0,1,1.89-5.34,6.31,6.31,0,0,1,4.87-2.06,5.48,5.48,0,0,1,4.09,1.47,5.65,5.65,0,0,1,1.45,4.14c0,.17,0,.36,0,.58S104.2,165.16,104.17,165.39ZM102.6,164a4.27,4.27,0,0,0-1-3A3.49,3.49,0,0,0,98.92,160a5,5,0,0,0-3.21,1,5.66,5.66,0,0,0-1.81,3Z"/><path class="cls-2" d="M119.39,159l-1.63,12.32h-1.67l.25-1.85a5.21,5.21,0,0,1-1.86,1.79,5.07,5.07,0,0,1-2.48.6,4.67,4.67,0,0,1-3.75-1.75,6.8,6.8,0,0,1-1.46-4.51,7.35,7.35,0,0,1,1.77-5,5.69,5.69,0,0,1,4.46-2,4.69,4.69,0,0,1,2.67.72,4.81,4.81,0,0,1,1.7,2.21l.34-2.47Zm-6.93,11.44a4,4,0,0,0,3.22-1.64,6.47,6.47,0,0,0,1.29-4.14,5.23,5.23,0,0,0-1.06-3.42,3.43,3.43,0,0,0-2.79-1.3,4,4,0,0,0-3.28,1.62,6.34,6.34,0,0,0-1.31,4.12,5.27,5.27,0,0,0,1.07,3.47A3.52,3.52,0,0,0,112.46,170.44Z"/><path class="cls-2" d="M122.51,171.31l2.88-21.53h1.66l-2.87,21.53Z"/><path class="cls-2" d="M137.13,171.31l2.7-20.33H150l-.2,1.56h-8.38l-.89,6.67h8.14l-.2,1.53H140.3l-1.18,9h8.59l-.24,1.6Z"/><path class="cls-2" d="M151.61,168.38A5.65,5.65,0,0,0,153.4,170a4.46,4.46,0,0,0,2.12.51,3.12,3.12,0,0,0,2-.65,2,2,0,0,0,.8-1.6,1.82,1.82,0,0,0-.44-1.28,6.29,6.29,0,0,0-2.09-1.14,8.68,8.68,0,0,1-2.91-1.63,2.68,2.68,0,0,1-.72-1.92,3.45,3.45,0,0,1,1.15-2.71,4.41,4.41,0,0,1,3.05-1,5,5,0,0,1,2.07.46,7.18,7.18,0,0,1,2,1.36l-1,1.11a5.71,5.71,0,0,0-1.55-1.18,3.73,3.73,0,0,0-1.68-.4,2.51,2.51,0,0,0-1.76.63,2.08,2.08,0,0,0-.68,1.61q0,1.19,2.33,2.11c.34.13.6.24.77.32a6.83,6.83,0,0,1,2.43,1.53,2.83,2.83,0,0,1,.72,2,3.47,3.47,0,0,1-1.24,2.8,5,5,0,0,1-3.34,1,6.22,6.22,0,0,1-2.78-.59,6.13,6.13,0,0,1-2.14-1.83Z"/><path class="cls-2" d="M164.56,160.45H162.5l.17-1.46h2.11l.66-5.05h1.67l-.68,5.05H169l-.21,1.46h-2.53l-1.43,10.86h-1.67Z"/><path class="cls-2" d="M182.34,159l-1.63,12.32H179l.25-1.85a5.21,5.21,0,0,1-1.86,1.79,5.07,5.07,0,0,1-2.48.6,4.67,4.67,0,0,1-3.75-1.75,6.8,6.8,0,0,1-1.46-4.51,7.35,7.35,0,0,1,1.77-5,5.69,5.69,0,0,1,4.46-2,4.69,4.69,0,0,1,2.67.72,4.81,4.81,0,0,1,1.7,2.21l.34-2.47Zm-6.93,11.44a4,4,0,0,0,3.22-1.64,6.47,6.47,0,0,0,1.29-4.14,5.23,5.23,0,0,0-1.06-3.42,3.43,3.43,0,0,0-2.79-1.3,4,4,0,0,0-3.28,1.62,6.34,6.34,0,0,0-1.31,4.12,5.27,5.27,0,0,0,1.07,3.47A3.52,3.52,0,0,0,175.41,170.44Z"/><path class="cls-2" d="M187,160.45h-2.07l.17-1.46h2.11l.66-5.05h1.67l-.68,5.05h2.55l-.21,1.46h-2.53l-1.43,10.86h-1.67Z"/><path class="cls-2" d="M204.26,165.39H193.81v.32a4.87,4.87,0,0,0,1.15,3.45,4.19,4.19,0,0,0,3.23,1.23,4.59,4.59,0,0,0,2.3-.58,5.55,5.55,0,0,0,1.82-1.74l1.15,1.1a6.71,6.71,0,0,1-2.31,2,6.53,6.53,0,0,1-3,.65,6.09,6.09,0,0,1-4.43-1.62,5.71,5.71,0,0,1-1.67-4.29,7.59,7.59,0,0,1,1.89-5.34,6.31,6.31,0,0,1,4.87-2.06,5.48,5.48,0,0,1,4.09,1.47,5.65,5.65,0,0,1,1.45,4.14c0,.17,0,.36,0,.58S204.29,165.16,204.26,165.39ZM202.68,164a4.27,4.27,0,0,0-1-3A3.49,3.49,0,0,0,199,160a5,5,0,0,0-3.21,1,5.66,5.66,0,0,0-1.81,3Z"/><path class="cls-2" d="M215.32,171.31,218,151h10.14l-.2,1.56h-8.38l-.89,6.67h8.14l-.2,1.53h-8.16l-1.18,9h8.59l-.24,1.6Z"/><path class="cls-2" d="M227.94,171.31l5.29-6.32-3.8-6h1.9l3,5,4.09-5h2.19l-5.44,6.21,3.77,6.11H237l-2.94-5.07-4,5.07Z"/><path class="cls-2" d="M240.51,177.5,243,159h1.65l-.25,1.9a6.24,6.24,0,0,1,2-1.79,4.91,4.91,0,0,1,2.39-.57,4.75,4.75,0,0,1,3.79,1.75A6.74,6.74,0,0,1,254,164.8a7.39,7.39,0,0,1-1.77,5.07,5.69,5.69,0,0,1-4.46,2,4.71,4.71,0,0,1-2.69-.74,4.8,4.8,0,0,1-1.72-2.22l-1.15,8.58Zm7.78-17.57a3.92,3.92,0,0,0-3.21,1.63,6.52,6.52,0,0,0-1.28,4.14,5.3,5.3,0,0,0,1.06,3.44,3.41,3.41,0,0,0,2.79,1.31,4,4,0,0,0,3.27-1.65,6.41,6.41,0,0,0,1.31-4.13,5.21,5.21,0,0,0-1.08-3.46A3.56,3.56,0,0,0,248.28,159.94Z"/><path class="cls-2" d="M268.7,165.39H258.25v.32a4.87,4.87,0,0,0,1.15,3.45,4.19,4.19,0,0,0,3.23,1.23,4.59,4.59,0,0,0,2.3-.58,5.55,5.55,0,0,0,1.82-1.74l1.15,1.1a6.71,6.71,0,0,1-2.31,2,6.53,6.53,0,0,1-3,.65,6.09,6.09,0,0,1-4.43-1.62,5.71,5.71,0,0,1-1.67-4.29,7.59,7.59,0,0,1,1.89-5.34,6.31,6.31,0,0,1,4.87-2.06,5.48,5.48,0,0,1,4.09,1.47,5.65,5.65,0,0,1,1.45,4.14c0,.17,0,.36,0,.58S268.73,165.16,268.7,165.39ZM267.12,164a4.27,4.27,0,0,0-1-3,3.49,3.49,0,0,0-2.72-1.06,5,5,0,0,0-3.21,1,5.66,5.66,0,0,0-1.81,3Z"/><path class="cls-2" d="M271.48,171.31,273.11,159h1.65l-.32,2.08a7.47,7.47,0,0,1,1.84-1.92,3.41,3.41,0,0,1,1.94-.65,4.2,4.2,0,0,1,.77.07,4,4,0,0,1,.7.19l-.39,1.68c-.37-.13-.66-.22-.86-.27a2.1,2.1,0,0,0-.5-.08,3.2,3.2,0,0,0-2.64,1.22A7.49,7.49,0,0,0,274,165l-.82,6.26Z"/><path class="cls-2" d="M282,160.45h-2.07l.17-1.46h2.11l.66-5.05h1.67l-.68,5.05h2.55l-.21,1.46h-2.53l-1.43,10.86h-1.67Z"/><path class="cls-2" d="M287.44,171.31,289.09,159h1.69l-1.63,12.32Zm1.76-16.86a1.28,1.28,0,0,1,2.17-.9,1.21,1.21,0,0,1,.37.9,1.2,1.2,0,0,1-.37.89,1.31,1.31,0,0,1-1.81,0A1.21,1.21,0,0,1,289.2,154.45Z"/><path class="cls-2" d="M293.84,168.38a5.65,5.65,0,0,0,1.79,1.58,4.46,4.46,0,0,0,2.12.51,3.12,3.12,0,0,0,2-.65,2,2,0,0,0,.8-1.6,1.82,1.82,0,0,0-.44-1.28A6.29,6.29,0,0,0,298,165.8a8.68,8.68,0,0,1-2.91-1.63,2.68,2.68,0,0,1-.72-1.92,3.45,3.45,0,0,1,1.15-2.71,4.41,4.41,0,0,1,3.05-1,5,5,0,0,1,2.07.46,7.18,7.18,0,0,1,2,1.36l-1,1.11a5.71,5.71,0,0,0-1.55-1.18,3.73,3.73,0,0,0-1.68-.4,2.51,2.51,0,0,0-1.76.63,2.08,2.08,0,0,0-.68,1.61q0,1.19,2.33,2.11c.34.13.6.24.77.32a6.83,6.83,0,0,1,2.43,1.53,2.83,2.83,0,0,1,.72,2,3.47,3.47,0,0,1-1.24,2.8,5,5,0,0,1-3.34,1,6.22,6.22,0,0,1-2.78-.59,6.13,6.13,0,0,1-2.14-1.83Z"/><path class="cls-2" d="M317.07,165.39H306.62v.32a4.87,4.87,0,0,0,1.15,3.45,4.19,4.19,0,0,0,3.23,1.23,4.59,4.59,0,0,0,2.3-.58,5.55,5.55,0,0,0,1.82-1.74l1.15,1.1a6.71,6.71,0,0,1-2.31,2,6.53,6.53,0,0,1-3,.65,6.09,6.09,0,0,1-4.43-1.62,5.71,5.71,0,0,1-1.67-4.29,7.59,7.59,0,0,1,1.89-5.34,6.31,6.31,0,0,1,4.87-2.06,5.48,5.48,0,0,1,4.09,1.47,5.65,5.65,0,0,1,1.45,4.14c0,.17,0,.36,0,.58S317.1,165.16,317.07,165.39ZM315.49,164a4.27,4.27,0,0,0-1-3,3.49,3.49,0,0,0-2.72-1.06,5,5,0,0,0-3.21,1,5.66,5.66,0,0,0-1.81,3Z"/><path class="cls-2" d="M348.49,162.33a13.34,13.34,0,0,1-2.84,1.53,7.37,7.37,0,0,1-2.6.51,11.78,11.78,0,0,1-3.74-.85l-.31-.11-.46-.17a11.84,11.84,0,0,0-3.61-.83,6.59,6.59,0,0,0-2.46.52,15.45,15.45,0,0,0-3,1.7v-1.28a12.77,12.77,0,0,1,2.83-1.53,7.5,7.5,0,0,1,2.62-.5,12.29,12.29,0,0,1,3.81.85l.27.1.38.14a11.81,11.81,0,0,0,3.67.85,6.57,6.57,0,0,0,2.46-.52,15.8,15.8,0,0,0,3-1.69Z"/><path class="cls-2" d="M360.29,166.48a7.41,7.41,0,0,0,2.1,2.81,4.54,4.54,0,0,0,2.82.91A4.13,4.13,0,0,0,368.3,169a4.27,4.27,0,0,0,1.15-3.12,3.75,3.75,0,0,0-.66-2.28,8.45,8.45,0,0,0-2.78-2,11.09,11.09,0,0,1-3.68-2.69,5.08,5.08,0,0,1-.87-3.06,5,5,0,0,1,1.62-3.84,5.89,5.89,0,0,1,4.17-1.51,5.66,5.66,0,0,1,2.89.72,6.89,6.89,0,0,1,2.26,2.29l-1.18,1a5.56,5.56,0,0,0-1.76-1.88,4.44,4.44,0,0,0-5.18.46,3.61,3.61,0,0,0-1.15,2.75,3.37,3.37,0,0,0,.65,2.11,9.91,9.91,0,0,0,3,2.1,10.78,10.78,0,0,1,3.62,2.69,5.21,5.21,0,0,1,.86,3.09,5.74,5.74,0,0,1-1.69,4.29,6,6,0,0,1-4.39,1.65,6.25,6.25,0,0,1-3.62-1,7.46,7.46,0,0,1-2.48-3.15Z"/><path class="cls-2" d="M374.44,171.31,376.08,159h1.69l-1.63,12.32Zm1.76-16.86a1.28,1.28,0,0,1,2.17-.9,1.21,1.21,0,0,1,.37.9,1.2,1.2,0,0,1-.37.89,1.31,1.31,0,0,1-1.81,0A1.21,1.21,0,0,1,376.19,154.45Z"/><path class="cls-2" d="M380.78,171.31,382.41,159h1.65l-.28,2a6.66,6.66,0,0,1,2.11-1.85,5.28,5.28,0,0,1,2.52-.6,4,4,0,0,1,2.83,1,3.39,3.39,0,0,1,1,2.62q0,.29,0,.64c0,.23-.05.48-.1.74l-1,7.82h-1.7l1-7.72c0-.2,0-.4.06-.59s0-.39,0-.59a2.22,2.22,0,0,0-.73-1.8,3.21,3.21,0,0,0-2.12-.62,3.69,3.69,0,0,0-3,1.3,7.41,7.41,0,0,0-1.44,3.88l-.82,6.14Z"/><path class="cls-2" d="M405.1,170.94a8.76,8.76,0,0,1-1.73.69,6.9,6.9,0,0,1-6.31-1.48,6,6,0,0,1-1.74-4.5,6.87,6.87,0,0,1,2-5.09,7,7,0,0,1,5.16-2,7.61,7.61,0,0,1,2.22.31,7.05,7.05,0,0,1,2,1l-.44,1.55a7.37,7.37,0,0,0-1.88-1,5.88,5.88,0,0,0-1.94-.33,5.08,5.08,0,0,0-3.82,1.56,5.5,5.5,0,0,0-1.5,4,4.75,4.75,0,0,0,1.28,3.46,4.47,4.47,0,0,0,3.36,1.32,5.05,5.05,0,0,0,1.82-.34,8.07,8.07,0,0,0,1.89-1.08Z"/><path class="cls-2" d="M420.33,165.39H409.88v.32a4.87,4.87,0,0,0,1.15,3.45,4.19,4.19,0,0,0,3.23,1.23,4.59,4.59,0,0,0,2.3-.58,5.55,5.55,0,0,0,1.82-1.74l1.15,1.1a6.71,6.71,0,0,1-2.31,2,6.53,6.53,0,0,1-3,.65,6.09,6.09,0,0,1-4.43-1.62,5.71,5.71,0,0,1-1.67-4.29A7.59,7.59,0,0,1,410,160.6a6.31,6.31,0,0,1,4.87-2.06A5.48,5.48,0,0,1,419,160a5.65,5.65,0,0,1,1.45,4.14c0,.17,0,.36,0,.58S420.36,165.16,420.33,165.39ZM418.75,164a4.27,4.27,0,0,0-1-3,3.49,3.49,0,0,0-2.72-1.06,5,5,0,0,0-3.21,1,5.66,5.66,0,0,0-1.81,3Z"/><path class="cls-2" d="M436.32,171.31l2.5-18.62h-3.71l.72-1.51h4.94l-2.69,20.14Z"/><path class="cls-2" d="M449.25,170.94l7.72-8.36a8.7,8.7,0,0,1-1.69.62,6.81,6.81,0,0,1-1.65.21,5.11,5.11,0,0,1-3.92-1.57,5.9,5.9,0,0,1-1.47-4.21,6.6,6.6,0,0,1,2-4.89,6.84,6.84,0,0,1,5-2,5.58,5.58,0,0,1,6,5.94,8.88,8.88,0,0,1-1.15,4.24,28.45,28.45,0,0,1-4.15,5.36l-5.41,5.79Zm5.24-8.9a4.74,4.74,0,0,0,3.56-1.51,5.17,5.17,0,0,0,1.44-3.71,4.15,4.15,0,0,0-4.4-4.42,5,5,0,0,0-3.69,1.46,5.15,5.15,0,0,0-1.44,3.77,4.32,4.32,0,0,0,1.19,3.25A4.6,4.6,0,0,0,454.5,162Z"/><path class="cls-2" d="M464.89,171.17l10.39-18.29h-9.87l.25-1.71h12.56L466.42,172Z"/><path class="cls-2" d="M481,171.17l10.39-18.29h-9.87l.25-1.71h12.56L482.55,172Z"/><path class="cls-3" d="M1.06,117.16V55.69H6.64V80.63H40.11V55.69H45.7v61.48H40.11V85.42H6.64v31.75Z"/><path class="cls-3" d="M63.13,117.16V55.69H73.8a53.55,53.55,0,0,1,10.12.67,13.43,13.43,0,0,1,5.29,2.31,15.24,15.24,0,0,1,4.66,5.65,16.88,16.88,0,0,1,1.6,7.37A13.61,13.61,0,0,1,92.9,80a12,12,0,0,1-7.05,4.54,14.67,14.67,0,0,1,9.28,4.75,14.38,14.38,0,0,1,3.36,9.78,21.17,21.17,0,0,1-1.3,7.68,15.27,15.27,0,0,1-3.95,5.79,15.07,15.07,0,0,1-6.47,3.55q-3.78,1-12.89,1ZM68.72,83h7q7.68,0,10.85-2.52t3.17-8.4q0-6.34-3.09-8.94t-10.94-2.6h-7Zm0,29.31h7.14a46.24,46.24,0,0,0,8.4-.5,9.78,9.78,0,0,0,3.91-1.72,10.43,10.43,0,0,0,3.15-4.18,14,14,0,0,0,1.18-5.69,15.21,15.21,0,0,0-1.3-6.49,9.27,9.27,0,0,0-3.61-4.18,11.71,11.71,0,0,0-3.76-1.32,41,41,0,0,0-6.74-.4H68.72Z"/><path class="cls-3" d="M162.24,66.94a33,33,0,0,0-9.36-5.84,27.2,27.2,0,0,0-10.08-1.89q-11.93,0-19.38,7.56T116,86.47a31.05,31.05,0,0,0,1.83,11,24.34,24.34,0,0,0,5.56,8.65,25.28,25.28,0,0,0,8.46,5.63A27,27,0,0,0,142,113.64a30.4,30.4,0,0,0,10.33-1.81,33.92,33.92,0,0,0,9.53-5.33V113a40,40,0,0,1-9.6,4.26,35.3,35.3,0,0,1-10,1.49,34.58,34.58,0,0,1-12.77-2.39,30.52,30.52,0,0,1-10.46-6.72,29.62,29.62,0,0,1-6.8-10.33A35,35,0,0,1,110,86.47a34.45,34.45,0,0,1,2.37-12.85,29.23,29.23,0,0,1,6.82-10.29,30.67,30.67,0,0,1,10.44-6.63,34.51,34.51,0,0,1,12.7-2.39,35.38,35.38,0,0,1,10.9,1.62,29.14,29.14,0,0,1,9.13,4.85Z"/><path class="cls-3" d="M253.8,71.14a24.48,24.48,0,0,0-21.5-11.76q-11.42,0-18.6,7.73t-7.18,20a28.13,28.13,0,0,0,1.91,10.37,26,26,0,0,0,5.56,8.65,24.68,24.68,0,0,0,8.27,5.61,26.3,26.3,0,0,0,10,1.87q10.33,0,16.82-6.09t6.66-15.92H234.57V86.8h27.34v.67q0,14.7-8,23T231.8,118.8q-14,0-22.63-8.9t-8.65-23.35A35.81,35.81,0,0,1,202.7,74,29.92,29.92,0,0,1,209,63.75a29.23,29.23,0,0,1,10.06-7.1,32,32,0,0,1,12.49-2.35,35.17,35.17,0,0,1,16,3.38,23.74,23.74,0,0,1,10.29,9.93Z"/><path class="cls-3" d="M313.15,117.16h-6.8L284.76,87.85H281.4v29.31h-5.58V55.69h11.3q10,0,15,4.16t5,12.6q0,7.18-4.26,11.3t-11.74,4.12ZM281.4,60.56V83.28H287q7.81,0,10.9-2.5t3.09-8.5q0-6.34-3.19-9T287,60.56Z"/><path class="cls-3" d="M386.26,86.55a31.4,31.4,0,0,1-2.48,12.37,32,32,0,0,1-7.14,10.44,33.66,33.66,0,0,1-35.91,7,33.06,33.06,0,0,1-17.82-17.51,31.32,31.32,0,0,1-2.46-12.33,31.83,31.83,0,0,1,2.46-12.45,32.29,32.29,0,0,1,7.16-10.52,31.25,31.25,0,0,1,10.55-6.93,35.44,35.44,0,0,1,25.44,0,31.78,31.78,0,0,1,10.57,6.91A32.3,32.3,0,0,1,383.8,74.1,31.83,31.83,0,0,1,386.26,86.55ZM353.32,113.8a26.8,26.8,0,0,0,10.34-2,27.21,27.21,0,0,0,8.78-5.88,27.53,27.53,0,0,0,0-38.72,26.23,26.23,0,0,0-8.72-5.88,27.05,27.05,0,0,0-10.4-2,26.48,26.48,0,0,0-10.3,2,27.34,27.34,0,0,0-8.74,5.88,28.1,28.1,0,0,0-5.88,8.88,27.53,27.53,0,0,0,5.88,29.84,26.39,26.39,0,0,0,8.66,5.9A26.74,26.74,0,0,0,353.32,113.8Z"/><path class="cls-3" d="M400.51,55.69H406V95.83q0,9.11,4.16,13.54t12.72,4.43q8.44,0,12.6-4.43t4.16-13.54V55.69h5.58V94q0,12.47-5.54,18.62t-16.8,6.15q-11.3,0-16.84-6.15T400.51,94Z"/><path class="cls-3" d="M462.41,117.16V55.69h11.21a48.15,48.15,0,0,1,9.76.71,15.11,15.11,0,0,1,5.44,2.35,13.69,13.69,0,0,1,4.49,5.75,20,20,0,0,1,1.6,8.1q0,8.78-4.91,12.87t-15.54,4.09H468v27.59ZM468,84.66h3.82q10.16,0,13.67-2.58T489,73a15.18,15.18,0,0,0-.8-5,12.19,12.19,0,0,0-2.39-4.09,8.84,8.84,0,0,0-4.45-2.6,41.46,41.46,0,0,0-9.53-.76H468Z"/><path class="cls-3" d="M2.52,25.33V1H4.72v9.86H18V1h2.21v24.3H18V12.78H4.72V25.33Z"/><path class="cls-3" d="M26.52,1h2.17V16.9q0,3.6,1.64,5.35a6.59,6.59,0,0,0,5,1.75,6.52,6.52,0,0,0,5-1.75Q42,20.5,42,16.9V1H44.2V16.19q0,4.93-2.19,7.36T35.36,26q-4.47,0-6.66-2.43t-2.19-7.36Z"/><path class="cls-3" d="M70.07,5.48a13,13,0,0,0-3.7-2.31,10.75,10.75,0,0,0-4-.75,10.28,10.28,0,0,0-7.66,3,10.61,10.61,0,0,0-2.95,7.79,12.26,12.26,0,0,0,.72,4.33A9.62,9.62,0,0,0,54.7,21,10,10,0,0,0,58,23.18a10.64,10.64,0,0,0,4,.76,12,12,0,0,0,4.08-.71,13.41,13.41,0,0,0,3.77-2.11v2.59a15.81,15.81,0,0,1-3.79,1.69,14,14,0,0,1-4,.59,13.67,13.67,0,0,1-5-.95A12.07,12.07,0,0,1,53,22.38a11.71,11.71,0,0,1-2.69-4.08,13.82,13.82,0,0,1-.91-5.1,13.61,13.61,0,0,1,.94-5.08A11.56,11.56,0,0,1,53,4.05a12.14,12.14,0,0,1,4.13-2.62,13.65,13.65,0,0,1,5-.95,14,14,0,0,1,4.31.64A11.52,11.52,0,0,1,70.1,3Z"/><path class="cls-3" d="M75.26,25.33V1h2.21V12.42L88.46,1h2.89L79.82,12.65,91.89,25.33h-3.2L77.47,13V25.33Z"/><path class="cls-3" d="M91.87,25.33,102.55.07l10.23,25.27h-2.41l-3.1-8.23H97.33l-3.22,8.23Zm6.21-10.13h8.47L102.4,4.63Z"/><path class="cls-3" d="M115.9,25.33V1h4.22a21.18,21.18,0,0,1,4,.27,5.32,5.32,0,0,1,2.09.91,6,6,0,0,1,1.84,2.23,6.68,6.68,0,0,1,.63,2.91,5.38,5.38,0,0,1-1,3.3,4.75,4.75,0,0,1-2.79,1.79,5.8,5.8,0,0,1,3.67,1.88,5.69,5.69,0,0,1,1.33,3.87,8.37,8.37,0,0,1-.51,3,6,6,0,0,1-1.56,2.29,6,6,0,0,1-2.56,1.4,21.94,21.94,0,0,1-5.1.41Zm2.21-13.5h2.76a7,7,0,0,0,4.29-1,4,4,0,0,0,1.25-3.32A4.41,4.41,0,0,0,125.19,4Q124,3,120.87,3h-2.76Zm0,11.59h2.82a18.28,18.28,0,0,0,3.32-.2,3.86,3.86,0,0,0,1.54-.68A4.13,4.13,0,0,0,127,20.89a5.52,5.52,0,0,0,.46-2.25,6,6,0,0,0-.51-2.56,3.67,3.67,0,0,0-1.43-1.65,4.63,4.63,0,0,0-1.49-.52,16.12,16.12,0,0,0-2.66-.16h-3.3Z"/><path class="cls-3" d="M139.74,25.33V14.14L131.67,1h2.66l6.52,11.14L147.41,1h2.52l-8,13.12V25.33Z"/><path class="cls-3" d="M184.1,25.33V1h4.22a21.18,21.18,0,0,1,4,.27,5.32,5.32,0,0,1,2.09.91,6,6,0,0,1,1.84,2.23,6.68,6.68,0,0,1,.63,2.91,5.38,5.38,0,0,1-1,3.3,4.75,4.75,0,0,1-2.79,1.79,5.8,5.8,0,0,1,3.67,1.88,5.69,5.69,0,0,1,1.33,3.87,8.37,8.37,0,0,1-.51,3A6,6,0,0,1,196,23.52a6,6,0,0,1-2.56,1.4,21.94,21.94,0,0,1-5.1.41Zm2.21-13.5h2.76a7,7,0,0,0,4.29-1,4,4,0,0,0,1.25-3.32A4.41,4.41,0,0,0,193.39,4q-1.22-1-4.32-1h-2.76Zm0,11.59h2.82a18.28,18.28,0,0,0,3.32-.2,3.86,3.86,0,0,0,1.54-.68,4.13,4.13,0,0,0,1.25-1.65,5.52,5.52,0,0,0,.46-2.25,6,6,0,0,0-.51-2.56,3.67,3.67,0,0,0-1.43-1.65,4.63,4.63,0,0,0-1.49-.52,16.12,16.12,0,0,0-2.66-.16h-3.3Z"/><path class="cls-3" d="M218.08,25.33h-2.69l-8.53-11.59h-1.33V25.33h-2.21V1h4.47q4,0,5.92,1.64a6.12,6.12,0,0,1,2,5A5.92,5.92,0,0,1,214,12.12a6.4,6.4,0,0,1-4.64,1.63ZM205.53,3v9h2.22q3.09,0,4.31-1a4.1,4.1,0,0,0,1.22-3.36A4.44,4.44,0,0,0,212,4Q210.75,3,207.75,3Z"/><path class="cls-3" d="M221.67,25.33V1h2.21v24.3Z"/><path class="cls-3" d="M228.49,21.25l1.89-1A5.23,5.23,0,0,0,232.22,23a5,5,0,0,0,3.13,1,4.73,4.73,0,0,0,3.6-1.36,5.24,5.24,0,0,0,1.29-3.77,4.74,4.74,0,0,0-.87-2.92,11.85,11.85,0,0,0-3.74-2.69,16.75,16.75,0,0,1-4.88-3.42,5.42,5.42,0,0,1-1.21-3.55,5.49,5.49,0,0,1,1.75-4.22A6.41,6.41,0,0,1,235.83.45a6.31,6.31,0,0,1,3.18.77,5.78,5.78,0,0,1,2.2,2.32l-1.71,1A3.71,3.71,0,0,0,238,3a4.61,4.61,0,0,0-2.3-.55,3.87,3.87,0,0,0-2.86,1.05,3.83,3.83,0,0,0-1.06,2.85q0,2.56,4.22,4.76l1.16.61a12.24,12.24,0,0,1,4.15,3.23,6.81,6.81,0,0,1,1,3.94,7,7,0,0,1-1.91,5.19,7.85,7.85,0,0,1-9.29.73A7.73,7.73,0,0,1,228.49,21.25Z"/><path class="cls-3" d="M267.21,5.48a13,13,0,0,0-3.7-2.31,10.75,10.75,0,0,0-4-.75,10.29,10.29,0,0,0-7.66,3,10.61,10.61,0,0,0-2.95,7.79,12.26,12.26,0,0,0,.72,4.33,9.62,9.62,0,0,0,2.2,3.42,10,10,0,0,0,3.34,2.22,10.65,10.65,0,0,0,4,.76,12,12,0,0,0,4.08-.71,13.41,13.41,0,0,0,3.77-2.11v2.59a15.8,15.8,0,0,1-3.79,1.69,14,14,0,0,1-4,.59,13.67,13.67,0,0,1-5-.95,12,12,0,0,1-4.13-2.66,11.71,11.71,0,0,1-2.69-4.08,13.8,13.8,0,0,1-.91-5.1,13.63,13.63,0,0,1,.94-5.08,11.55,11.55,0,0,1,2.7-4.07,12.13,12.13,0,0,1,4.13-2.62,13.65,13.65,0,0,1,5-.95,14,14,0,0,1,4.31.64A11.53,11.53,0,0,1,267.25,3Z"/><path class="cls-3" d="M297.27,13.23a12.42,12.42,0,0,1-1,4.89,12.63,12.63,0,0,1-2.82,4.13A13.31,13.31,0,0,1,279.27,25a13.07,13.07,0,0,1-7-6.92,12.38,12.38,0,0,1-1-4.87,12.58,12.58,0,0,1,1-4.92,12.77,12.77,0,0,1,2.83-4.16,12.37,12.37,0,0,1,4.17-2.74,14,14,0,0,1,10.06,0,12.55,12.55,0,0,1,4.18,2.73,12.77,12.77,0,0,1,2.83,4.16A12.58,12.58,0,0,1,297.27,13.23ZM284.25,24a10.59,10.59,0,0,0,4.09-.8,10.75,10.75,0,0,0,3.47-2.32,10.88,10.88,0,0,0,0-15.31,10.38,10.38,0,0,0-3.45-2.32,10.7,10.7,0,0,0-4.11-.8,10.46,10.46,0,0,0-4.07.8,10.82,10.82,0,0,0-3.46,2.32,11.12,11.12,0,0,0-2.33,3.51,10.76,10.76,0,0,0-.8,4.14,10.74,10.74,0,0,0,3.12,7.65,10.44,10.44,0,0,0,3.42,2.33A10.57,10.57,0,0,0,284.25,24Z"/><path class="cls-3" d="M302.56,25.33V1h12V3.1h-9.83v7.6h9.83v2.08h-9.83V23.26h9.83v2.08Z"/><path class="cls-3" d="M370.55,5.48a13,13,0,0,0-3.7-2.31,10.75,10.75,0,0,0-4-.75,10.29,10.29,0,0,0-7.66,3,10.62,10.62,0,0,0-2.95,7.79,12.29,12.29,0,0,0,.72,4.33,9.63,9.63,0,0,0,2.2,3.42,10,10,0,0,0,3.34,2.22,10.65,10.65,0,0,0,4,.76,12,12,0,0,0,4.08-.71,13.41,13.41,0,0,0,3.77-2.11v2.59a15.8,15.8,0,0,1-3.79,1.69,14,14,0,0,1-4,.59,13.67,13.67,0,0,1-5-.95,12.07,12.07,0,0,1-4.13-2.66,11.71,11.71,0,0,1-2.69-4.08,13.82,13.82,0,0,1-.91-5.1,13.63,13.63,0,0,1,.94-5.08,11.58,11.58,0,0,1,2.7-4.07,12.13,12.13,0,0,1,4.13-2.62,13.64,13.64,0,0,1,5-.95,14,14,0,0,1,4.31.64A11.52,11.52,0,0,1,370.58,3Z"/><path class="cls-3" d="M400.61,13.23a12.42,12.42,0,0,1-1,4.89,12.64,12.64,0,0,1-2.82,4.13A13.31,13.31,0,0,1,382.61,25a13.07,13.07,0,0,1-7-6.92,12.4,12.4,0,0,1-1-4.87,12.6,12.6,0,0,1,1-4.92,12.78,12.78,0,0,1,2.83-4.16,12.37,12.37,0,0,1,4.17-2.74,14,14,0,0,1,10.06,0,12.56,12.56,0,0,1,4.18,2.73,12.78,12.78,0,0,1,2.83,4.16A12.6,12.6,0,0,1,400.61,13.23ZM387.58,24a10.59,10.59,0,0,0,4.09-.8,10.86,10.86,0,0,0,3.47-17.63,10.39,10.39,0,0,0-3.45-2.32,10.69,10.69,0,0,0-4.11-.8,10.47,10.47,0,0,0-4.07.8,10.82,10.82,0,0,0-3.46,2.32,11.1,11.1,0,0,0-2.33,3.51,10.75,10.75,0,0,0-.8,4.14,10.75,10.75,0,0,0,3.12,7.65,10.44,10.44,0,0,0,3.42,2.33A10.58,10.58,0,0,0,387.58,24Z"/><path class="cls-3" d="M405.9,25.33V0l17.22,20.34V1h2.06V26L408,5.68V25.33Z"/><path class="cls-3" d="M446.4,25.33h-2.69l-8.53-11.59h-1.33V25.33h-2.21V1h4.47q4,0,5.92,1.64a6.12,6.12,0,0,1,2,5,5.91,5.91,0,0,1-1.69,4.47,6.4,6.4,0,0,1-4.64,1.63ZM433.85,3v9h2.22q3.09,0,4.31-1a4.09,4.09,0,0,0,1.22-3.36A4.44,4.44,0,0,0,440.34,4Q439.08,3,436.07,3Z"/><path class="cls-3" d="M474.86,13.23a12.42,12.42,0,0,1-1,4.89,12.64,12.64,0,0,1-2.82,4.13A13.31,13.31,0,0,1,456.86,25a13.07,13.07,0,0,1-7-6.92,12.4,12.4,0,0,1-1-4.87,12.6,12.6,0,0,1,1-4.92,12.78,12.78,0,0,1,2.83-4.16,12.37,12.37,0,0,1,4.17-2.74,14,14,0,0,1,10.06,0,12.56,12.56,0,0,1,4.18,2.73,12.78,12.78,0,0,1,2.83,4.16A12.6,12.6,0,0,1,474.86,13.23ZM461.84,24a10.59,10.59,0,0,0,4.09-.8A10.86,10.86,0,0,0,469.4,5.58a10.39,10.39,0,0,0-3.45-2.32,10.69,10.69,0,0,0-4.11-.8,10.47,10.47,0,0,0-4.07.8,10.82,10.82,0,0,0-3.46,2.32A11.1,11.1,0,0,0,452,9.09a10.75,10.75,0,0,0-.8,4.14,10.75,10.75,0,0,0,3.12,7.65,10.44,10.44,0,0,0,3.42,2.33A10.58,10.58,0,0,0,461.84,24Z"/><path class="cls-3" d="M484.15,25.33V14.14L476.08,1h2.66l6.52,11.14L491.82,1h2.52l-8,13.12V25.33Z"/></svg>