<svg id="Layer_1" data-name="Layer 1" xmlns="http://www.w3.org/2000/svg" viewBox="0 0 409.6 321.83"><defs><style>.cls-1{fill:#8c1c1c;}</style></defs><title>001-envelope</title><path class="cls-1" d="M-163.69-58.8q7.78,5.48,46.86,32.57t59.88,41.71q2.28,1.61,9.72,7t12.34,8.69Q-30,34.46-23,38.57A69,69,0,0,0-9.86,44.73,36.24,36.24,0,0,0,1.57,46.79H2a36.24,36.24,0,0,0,11.43-2.05A69.15,69.15,0,0,0,26.6,38.57q7-4.12,11.89-7.43t12.34-8.69q7.42-5.37,9.72-7,21-14.63,107-74.29A108.56,108.56,0,0,0,195.4-86.92q11.2-16.45,11.2-34.51a35,35,0,0,0-10.86-25.83A35.31,35.31,0,0,0,170-158H-166.43q-17.6,0-27.09,11.88T-203-116.4q0,14.4,12.57,31.2t26.74,26.4Zm0,0" transform="translate(203 158)"/><path class="cls-1" d="M183.74-34.34q-75,50.74-113.82,78.86-13,9.6-21.14,15a130.65,130.65,0,0,1-21.6,11Q13.69,76.06,2,76H1.57q-11.65,0-25.14-5.6a130.78,130.78,0,0,1-21.6-11q-8.11-5.37-21.14-15-30.86-22.62-113.6-78.86A121,121,0,0,1-203-54.23V127.25a35.21,35.21,0,0,0,10.74,25.83,35.21,35.21,0,0,0,25.83,10.75H170a36.68,36.68,0,0,0,36.57-36.58V-54.23a126,126,0,0,1-22.86,19.89Zm0,0" transform="translate(203 158)"/></svg>