<svg id="Layer_1" data-name="Layer 1" xmlns="http://www.w3.org/2000/svg" viewBox="0 0 2.76 2.8"><defs><style>.cls-1{fill:#fff;}</style></defs><title>home</title><path class="cls-1" d="M3.5,3.82H2.89a0,0,0,0,1,0,0V2.91H2.27v.86a0,0,0,0,1,0,0H1.61a0,0,0,0,1,0,0V2.36H1.22a0,0,0,0,1,0-.07L2.53,1a0,0,0,0,1,.06,0L3.93,2.29a0,0,0,0,1,0,0,0,0,0,0,1,0,0H3.55V3.77a0,0,0,0,1,0,0Zm-.57-.08h.53V2.32a0,0,0,0,1,0,0h.29L2.56,1.11,1.32,2.28h.29a0,0,0,0,1,0,0V3.73h.53V2.87a0,0,0,0,1,0,0h.67a0,0,0,0,1,0,0Zm0,0" transform="translate(-1.18 -1.01)"/></svg>