<svg id="Layer_1" data-name="Layer 1" xmlns="http://www.w3.org/2000/svg" viewBox="0 0 410.15 341.17"><defs><style>.cls-1{fill:#76a9ea;}</style></defs><title>005-twitter</title><path class="cls-1" d="M403.63,74.18a162.41,162.41,0,0,1-28.28,9.54,88.18,88.18,0,0,0,23.27-37.07h0a4.62,4.62,0,0,0-6.76-5.39h0a163.19,163.19,0,0,1-43.24,17.86,11,11,0,0,1-2.7.34,11.46,11.46,0,0,1-7.57-2.89,88.42,88.42,0,0,0-58.51-22.08,94.54,94.54,0,0,0-28,4.33,85.67,85.67,0,0,0-57.74,61.72A94.33,94.33,0,0,0,192,133.1a3.17,3.17,0,0,1-.8,2.48,3.28,3.28,0,0,1-2.44,1.11h-.31C125.69,130.84,69.09,100.6,29.09,51.53h0a4.62,4.62,0,0,0-7.58.59h0A88.53,88.53,0,0,0,35.9,159.61a79.24,79.24,0,0,1-20.17-7.81h0a4.62,4.62,0,0,0-6.87,4h0a88.54,88.54,0,0,0,51.65,81.57l-1.89,0A79.57,79.57,0,0,1,43.72,236h0a4.62,4.62,0,0,0-5.27,6h0a88.62,88.62,0,0,0,70,60.28,163.17,163.17,0,0,1-91.39,27.75H6.83A6.77,6.77,0,0,0,.21,335a7,7,0,0,0,3.35,7.74,242.7,242.7,0,0,0,122,32.88c37.49,0,72.55-7.44,104.22-22.11A230.14,230.14,0,0,0,306,296.41a250.52,250.52,0,0,0,46.69-78.2,247,247,0,0,0,15.87-85.59v-1.35a15,15,0,0,1,5.63-11.71A174.78,174.78,0,0,0,409.35,81h0a4.62,4.62,0,0,0-5.72-6.79Z" transform="translate(0 -34.49)"/></svg>